<svg xmlns="http://www.w3.org/2000/svg" width="167" height="184.537" viewBox="0 0 167 184.537">
  <path id="fingerprint_FILL1_wght300_GRAD0_opsz48" d="M6.8,72.268a1.678,1.678,0,0,1-.7-1.507,3.069,3.069,0,0,1,.464-1.739A99.156,99.156,0,0,1,42.618,38.416a102.078,102.078,0,0,1,46.489-10.9,107.06,107.06,0,0,1,46.836,10.55,96.434,96.434,0,0,1,36.634,30.49,2.55,2.55,0,0,1,.464,1.971,3.487,3.487,0,0,1-.927,1.507,3.3,3.3,0,0,1-1.855.464A2.1,2.1,0,0,1,168.4,71.34a90.244,90.244,0,0,0-34.664-29.1A101.721,101.721,0,0,0,89.107,32.155a97.736,97.736,0,0,0-78.6,39.185A3.007,3.007,0,0,1,8.65,72.616,3.2,3.2,0,0,1,6.8,72.268ZM116.467,188.431A74.956,74.956,0,0,1,77.63,164.665q-15.419-17.738-15.419-43.243a23.634,23.634,0,0,1,8-18.2,27.393,27.393,0,0,1,19.129-7.3,26.981,26.981,0,0,1,19.013,7.3,23.792,23.792,0,0,1,7.883,18.2,18.809,18.809,0,0,0,6.724,14.723,22.822,22.822,0,0,0,15.535,5.913,21.983,21.983,0,0,0,15.3-5.913,19.1,19.1,0,0,0,6.492-14.723q0-28.287-20.984-47.416t-50.2-19.129q-29.215,0-50.082,19.129T18.157,121.423A104.6,104.6,0,0,0,19.432,135.8a102.011,102.011,0,0,0,5.449,20.172,1.945,1.945,0,0,1,0,1.855,3.5,3.5,0,0,1-1.391,1.159,2.883,2.883,0,0,1-1.971.232,2.087,2.087,0,0,1-1.507-1.391,154.494,154.494,0,0,1-4.753-18.2,94.968,94.968,0,0,1-1.739-18.2q0-29.91,22.491-50.894t53.1-20.984q31.3,0,53.792,20.752t22.491,51.126a23.9,23.9,0,0,1-7.883,18.085,26.747,26.747,0,0,1-19.013,7.42,27.565,27.565,0,0,1-19.245-7.42,23.587,23.587,0,0,1-8.115-18.085,19.618,19.618,0,0,0-6.376-14.839,21.631,21.631,0,0,0-15.419-6.028,22.448,22.448,0,0,0-15.651,6.028,19.3,19.3,0,0,0-6.608,14.839q0,23.882,14.491,39.881a77.927,77.927,0,0,0,36.055,22.491,2.844,2.844,0,0,1,1.739,1.159,2.293,2.293,0,0,1,.116,1.623,2.679,2.679,0,0,1-1.043,1.739A1.96,1.96,0,0,1,116.467,188.431ZM35.315,22.649a2.884,2.884,0,0,1-1.623,0,2.235,2.235,0,0,1-1.159-.927A5.138,5.138,0,0,1,32.3,20.1a1.56,1.56,0,0,1,.7-1.391,115.969,115.969,0,0,1,85.442-10.9,135.861,135.861,0,0,1,27.476,10.434,2.087,2.087,0,0,1,1.391,1.507,2.174,2.174,0,0,1-.232,1.739,3.71,3.71,0,0,1-1.275,1.159,2.2,2.2,0,0,1-1.971,0,121.484,121.484,0,0,0-26.316-9.97A116.792,116.792,0,0,0,61.4,12.563,111.787,111.787,0,0,0,35.315,22.649ZM66.153,185.881a116.106,116.106,0,0,1-20.636-29.215q-7.42-15.3-7.42-35.243,0-20.4,15.071-34.548T89.339,72.732a51.809,51.809,0,0,1,36.4,14.144q15.3,14.144,15.3,34.548a2.394,2.394,0,0,1-2.551,2.55,2.628,2.628,0,0,1-1.739-.7,2.32,2.32,0,0,1-.812-1.855,40.616,40.616,0,0,0-13.8-31.186A46.929,46.929,0,0,0,89.339,77.6,46.517,46.517,0,0,0,56.646,90.237a40.771,40.771,0,0,0-13.68,31.186q0,19.708,6.84,33.388T69.862,182.4a2.3,2.3,0,0,1,.7,1.971,5.349,5.349,0,0,1-.7,1.507,7.3,7.3,0,0,1-1.739.812,1.744,1.744,0,0,1-1.971-.812Zm70.486-16.926A50.721,50.721,0,0,1,101.4,155.507q-14.839-13.448-14.839-34.084a2.8,2.8,0,0,1,.58-1.855,2.439,2.439,0,0,1,1.971-.7,2.134,2.134,0,0,1,1.739.7,2.8,2.8,0,0,1,.58,1.855q0,18.781,13.564,30.838a46.15,46.15,0,0,0,31.649,12.057q2.087,0,4.637-.232t5.333-.7a2.409,2.409,0,0,1,1.855.232,2.251,2.251,0,0,1,.927,1.391,1.951,1.951,0,0,1-.232,1.623,2.409,2.409,0,0,1-1.623.927,23.482,23.482,0,0,1-6.492,1.275q-3.014.116-4.405.116Z" transform="translate(-6.1 -4.1)" fill="#0148e2"/>
</svg>
